<svg xmlns="http://www.w3.org/2000/svg" width="64" height="64" fill="none" viewBox="0 0 64 64" role="img" aria-label="Guatemala Rewards">
  <defs>
    <linearGradient id="gold" x1="11" y1="5" x2="54" y2="59" gradientUnits="userSpaceOnUse">
      <stop stop-color="#FFF3BD"/>
      <stop offset=".25" stop-color="#D99F33"/>
      <stop offset=".5" stop-color="#FFF1A6"/>
      <stop offset=".75" stop-color="#A76512"/>
      <stop offset="1" stop-color="#F4CF70"/>
    </linearGradient>
  </defs>
  <path stroke="url(#gold)" stroke-linecap="round" stroke-width="2.2" d="M16.5 38.8C10.8 31.1 12.9 20.2 21 14.6 29.9 8.5 43 9.2 51.2 16.2c6.3 5.4 9 13.8 7 21.6"/>
  <path fill="url(#gold)" d="M38.9 12.4c-5.4 0-10 1.9-13.5 5.5-3.5 3.6-5.3 8-5.3 13.3 0 5.1 1.7 9.5 5.2 13.1 3.5 3.7 7.7 5.5 12.9 5.5 3.7 0 7-.8 9.9-2.5 3-1.7 5.1-4 6.2-6.8h-6.7c-1.8 2.2-4.8 3.4-8.8 3.4-3.7 0-6.7-1.2-9-3.7-2.4-2.5-3.5-5.5-3.5-9.2 0-3.8 1.2-6.8 3.7-9.3 2.5-2.4 5.6-3.7 9.5-3.7 5.9 0 9.9 2.5 11.9 7.5h5.1V13.4h-3.4c-.4 1.7-1 2.8-1.8 3.2-.8.4-1.9.1-3.5-.8-2.8-2.3-5.8-3.4-8.9-3.4Z"/>
  <path fill="url(#gold)" d="M40.8 27.2h16v4.6h-8.4v12.7c-2 2.4-4.8 4.1-8.3 5.1v-4.9c2.8-1.3 4.2-3.4 4.2-6.5v-6.4h-3.5v-4.6Z"/>
  <path fill="url(#gold)" d="M31.9 36.4c.8-1.2.4-2.6 1.4-4-.2 1.7 1.3 2.6.3 4.4 1.2-1.2.9-2.4 1.8-3.4-.4 1.9 1.1 3 .5 4.9-.5 1.6-1.7 2.4-3.2 2.5-1.6-.1-2.5-.9-2.9-2.2-.2-1 .5-1.5 2.1-2.2Z"/>
  <path fill="url(#gold)" d="M15.3 45.2c4.9-1.1 9.2-3.6 12.9-7.6h4.8c4.5 4.2 9.4 6.9 14.7 8-6.9-.4-12.7-2.5-17.4-6.1-4.8 3.5-9.8 5.4-15 5.7Z"/>
  <path stroke="url(#gold)" stroke-linecap="round" stroke-width="1.6" d="M18.4 50.7c8.1 1 17.2.9 27.2.2"/>
</svg>
